# xmcd
#
# Track frame offsets: 
#        150
#        18164
#        37878
#        56881
#        72964
#        87680
#        111388
#        136351
#        160708
#        179346
#        199081
#        221688
#        236633
#        259860
#        278674
#        305333
#        339287
#
# Disc length: 4767 seconds
#
# Revision: 0
# Processed by: cddbd v1.5.2PL0 Copyright (c) Steve Scherf et al.
# Submitted via: ExactAudioCopy v1.1
#
DISCID=f6129d11
DTITLE=Various Artist - Akella Presents - vol.104 - Modern Electric B
DTITLE=lues  CD2
DYEAR=2017
DGENRE=Country
TTITLE0=The Fabulous Thunderbirds - Strong Like That
TTITLE1=The Peacemakers - Fool's Gold
TTITLE2=John Mayall - Ain't That Lovin' You Baby
TTITLE3=Dion - Preachin' Blues
TTITLE4=Otis Taylor - Tripping On This
TTITLE5=Thorbjorn Risager and The Black Tornado - Long Gone
TTITLE6=Knockout Greg and Blue Weather - Midnight Hours Journey
TTITLE7=Jimmy and the Soulcats - She's Got Me
TTITLE8=Blues 'N' Trouble - I Ain't Living Anymore
TTITLE9=Ron Evans Group - Sensitive Kind
TTITLE10=Ben Poole - The Question Why
TTITLE11=Sunnyland Bluesband - Bang For The Buck
TTITLE12=Jimbo Ross and The Bodacious Band - Got My Mojo Working
TTITLE13=Boogie Bone - Gotcha Baby
TTITLE14=Bob Lanza Blues Band - I Wouldn't Treat a Dog
TTITLE15=Hitman Blues Band - Hoochie Coochie Man
TTITLE16=Big Monti Amundson - Oh Johnny Why
EXTD=
EXTT0=
EXTT1=
EXTT2=
EXTT3=
EXTT4=
EXTT5=
EXTT6=
EXTT7=
EXTT8=
EXTT9=
EXTT10=
EXTT11=
EXTT12=
EXTT13=
EXTT14=
EXTT15=
EXTT16=
PLAYORDER=
